# xmcd
#
# Track frame offsets: 
#        182
#        9865
#        23175
#        37007
#        60547
#        81742
#        94240
#        105640
#        120147
#        133945
#
# Disc length: 1985 seconds
#
# Revision: 4
# Processed by: cddbd v1.5.2PL0 Copyright (c) Steve Scherf et al.
# Submitted via: ExactAudioCopyFreeDBPlugin 1.0
#
DISCID=7c07bf0a
DTITLE=Waylon Jennings - Ladies Love Outlaws (The Encore Collection)
DYEAR=1997
DGENRE=Country
TTITLE0=Theme from the Dukes of Hazzard (Good Ol' Boys)
TTITLE1=Amanda
TTITLE2=A Good Hearted Woman
TTITLE3=Waltz Across Texas
TTITLE4=I Ain't Living Long Like This
TTITLE5=We Had It All
TTITLE6=Ladies Love Outlaws
TTITLE7=Folsom Prison Blues
TTITLE8=The Year That Clayton Delaney Died
TTITLE9=He Went to Paris
EXTD=
EXTT0=
EXTT1=
EXTT2=
EXTT3=
EXTT4=
EXTT5=
EXTT6=
EXTT7=
EXTT8=
EXTT9=
PLAYORDER=
